<svg width="96" height="96" viewBox="0 0 96 96" fill="none" xmlns="http://www.w3.org/2000/svg">
  <rect width="96" height="96" rx="20" fill="url(#gradient)"/>
  <path d="M48 24C34.7452 24 24 34.7452 24 48C24 61.2548 34.7452 72 48 72C61.2548 72 72 61.2548 72 48C72 34.7452 61.2548 24 48 24ZM48 32C56.8366 32 64 39.1634 64 48C64 56.8366 56.8366 64 48 64C39.1634 64 32 56.8366 32 48C32 39.1634 39.1634 32 48 32Z" fill="white" fill-opacity="0.9"/>
  <circle cx="48" cy="48" r="8" fill="white"/>
  <defs>
    <linearGradient id="gradient" x1="0" y1="0" x2="96" y2="96">
      <stop offset="0%" stop-color="#3b82f6"/>
      <stop offset="100%" stop-color="#1e40af"/>
    </linearGradient>
  </defs>
</svg>